<svg xmlns="http://www.w3.org/2000/svg" viewBox="0 0 900 220" fill="none">
  <!-- Icon container left -->
  <rect x="20" y="30" width="160" height="160" rx="32" fill="#0E2A1A"/>

  <!-- Gecko (same as main icon, scaled down) -->
  <g transform="translate(100, 110) scale(0.31) rotate(-20)">
    <path d="M -160,-10 C -150,-50 -110,-80 -60,-70 C -10,-60 30,-30 50,10 C 70,40 100,50 130,30 C 155,15 170,-15 165,-45 L 195,-55 Q 215,-58 218,-40 Q 220,-22 200,-20 L 175,-15 C 180,15 165,55 130,75 C 90,95 40,90 0,70 C -40,50 -70,15 -90,-10 C -110,-30 -130,-30 -150,-15 C -160,-8 -165,-5 -160,-10 Z" fill="#1F6B3A"/>
    <ellipse cx="195" cy="-40" rx="30" ry="20" fill="#1F6B3A"/>
    <path d="M -150,-15 C -195,-20 -230,-35 -250,-65 C -265,-90 -250,-115 -225,-115 C -205,-115 -195,-100 -200,-85" stroke="#1F6B3A" stroke-width="28" stroke-linecap="round" fill="none"/>
    <path d="M -200,-85 C -202,-78 -200,-72 -195,-72" stroke="#1F6B3A" stroke-width="18" stroke-linecap="round" fill="none"/>
    <path d="M 130,30 C 155,55 165,80 150,100 C 140,110 125,108 120,95" stroke="#1F6B3A" stroke-width="22" stroke-linecap="round" fill="none"/>
    <circle cx="148" cy="103" r="9" fill="#1F6B3A"/><circle cx="135" cy="110" r="8" fill="#1F6B3A"/><circle cx="122" cy="105" r="8" fill="#1F6B3A"/>
    <path d="M 70,-40 C 90,-75 80,-105 55,-110 C 35,-114 25,-100 35,-85" stroke="#1F6B3A" stroke-width="22" stroke-linecap="round" fill="none"/>
    <circle cx="50" cy="-110" r="9" fill="#1F6B3A"/><circle cx="35" cy="-112" r="8" fill="#1F6B3A"/><circle cx="25" cy="-100" r="8" fill="#1F6B3A"/>
    <path d="M -50,40 C -30,75 -40,105 -65,108 C -85,110 -95,95 -85,80" stroke="#1F6B3A" stroke-width="22" stroke-linecap="round" fill="none"/>
    <circle cx="-70" cy="108" r="9" fill="#1F6B3A"/><circle cx="-85" cy="105" r="8" fill="#1F6B3A"/><circle cx="-90" cy="92" r="8" fill="#1F6B3A"/>
    <path d="M -120,-30 C -140,-65 -125,-95 -100,-100 C -82,-103 -75,-90 -83,-78" stroke="#1F6B3A" stroke-width="22" stroke-linecap="round" fill="none"/>
    <circle cx="-95" cy="-100" r="9" fill="#1F6B3A"/><circle cx="-80" cy="-100" r="8" fill="#1F6B3A"/><circle cx="-72" cy="-88" r="8" fill="#1F6B3A"/>
    <circle cx="200" cy="-45" r="9" fill="#C9A24B"/>
    <ellipse cx="200" cy="-45" rx="3" ry="6" fill="#0E2A1A"/>
  </g>

  <!-- Wordmark -->
  <text x="210" y="125" font-family="'Segoe UI', system-ui, sans-serif" font-size="76" font-weight="900" fill="#0E2A1A" letter-spacing="3">
    REPTI<tspan fill="#1F6B3A">-</tspan>TRACK
  </text>
  <text x="212" y="168" font-family="'Segoe UI', system-ui, sans-serif" font-size="16" font-weight="600" fill="#8A8A85" letter-spacing="8">
    REPTILE COLLECTION MANAGER
  </text>
</svg>
